<svg width="33" height="33" viewBox="0 0 33 33" fill="none" xmlns="http://www.w3.org/2000/svg">
<path fill-rule="evenodd" clip-rule="evenodd" d="M17.4437 17.9084V23.6227C19.4546 23.4421 20.3009 22.3158 20.3009 20.8284C20.3009 19.3958 19.6426 18.5484 17.4437 17.9084ZM15.7294 15.0512V9.90837C13.8591 10.1455 12.8723 11.2398 12.8723 12.4398C12.8723 13.6398 13.6517 14.5238 15.7294 15.0512ZM17.3523 15.4724L17.9649 15.6307C21.3203 16.4358 23.158 17.8609 23.158 20.6718C23.158 23.9049 20.606 25.7392 17.3523 25.9769V28.1941H15.9106V25.9769C12.6694 25.7261 10.1049 23.8392 10.0151 20.6718H12.6563C12.886 22.2158 13.8563 23.3507 15.9106 23.5747V17.8221L15.3871 17.6901C12.146 16.9112 10.398 15.4067 10.398 12.7278C10.398 9.7718 12.6951 7.81866 15.9106 7.5678V5.33694H17.3523V7.56723C20.542 7.83123 22.8517 9.81066 22.954 12.8067H20.2997C20.134 11.1438 18.9854 10.1804 17.3523 9.96895V15.4724Z" fill="#FFAD08"/>
</svg>
