<svg width="33" height="33" viewBox="0 0 33 33" fill="none" xmlns="http://www.w3.org/2000/svg">
<path d="M24.3088 23.2807C23.9621 22.2141 22.9621 21.4274 21.7754 21.4274H20.4421V17.4274C20.4421 17.0738 20.3016 16.7346 20.0516 16.4846C19.8015 16.2346 19.4624 16.0941 19.1088 16.0941H11.1088V13.4274H13.7754C14.1291 13.4274 14.4682 13.2869 14.7182 13.0369C14.9683 12.7868 15.1088 12.4477 15.1088 12.0941V9.42741H17.7754C18.4827 9.42741 19.161 9.14646 19.661 8.64636C20.1611 8.14626 20.4421 7.46799 20.4421 6.76074V6.21408C22.0374 6.85723 23.4531 7.87737 24.568 9.18719C25.6829 10.497 26.4638 12.0575 26.8439 13.735C27.224 15.4126 27.1919 17.1572 26.7504 18.8197C26.3089 20.4821 25.4711 22.0128 24.3088 23.2807ZM15.1088 26.6674C9.8421 26.0141 5.77543 21.5341 5.77543 16.0941C5.77543 15.2674 5.8821 14.4674 6.05543 13.7074L12.4421 20.0941V21.4274C12.4421 22.1347 12.723 22.8129 13.2231 23.313C13.7232 23.8131 14.4015 24.0941 15.1088 24.0941M16.4421 2.76074C14.6911 2.76074 12.9573 3.10562 11.3397 3.77568C9.72198 4.44574 8.25212 5.42787 7.01401 6.66598C4.51352 9.16647 3.10876 12.5579 3.10876 16.0941C3.10876 19.6303 4.51352 23.0217 7.01401 25.5222C8.25212 26.7603 9.72198 27.7424 11.3397 28.4125C12.9573 29.0825 14.6911 29.4274 16.4421 29.4274C19.9783 29.4274 23.3697 28.0226 25.8702 25.5222C28.3707 23.0217 29.7754 19.6303 29.7754 16.0941C29.7754 14.3431 29.4306 12.6093 28.7605 10.9916C28.0904 9.37395 27.1083 7.9041 25.8702 6.66598C24.6321 5.42787 23.1622 4.44574 21.5445 3.77568C19.9269 3.10562 18.1931 2.76074 16.4421 2.76074Z" fill="#FFAD08"/>
</svg>
